<?xml version="1.0" standalone="no"?>
<!DOCTYPE svg PUBLIC "-//W3C//DTD SVG 20010904//EN"
 "http://www.w3.org/TR/2001/REC-SVG-20010904/DTD/svg10.dtd">
<svg version="1.0" xmlns="http://www.w3.org/2000/svg"
 width="500.000000pt" height="500.000000pt" viewBox="0 0 500.000000 500.000000"
 preserveAspectRatio="xMidYMid meet">
<metadata>
Created by potrace 1.14, written by Peter Selinger 2001-2017
</metadata>
<g transform="translate(0.000000,500.000000) scale(0.100000,-0.100000)"
fill="#000000" stroke="none">
<path d="M2215 4905 c-373 -51 -705 -168 -1001 -354 -246 -155 -478 -366 -638
-581 -22 -30 -43 -57 -46 -60 -8 -7 -70 -103 -119 -183 -50 -82 -151 -288
-151 -309 0 -8 -4 -18 -9 -23 -21 -23 -107 -304 -125 -410 -3 -16 -10 -55 -16
-85 -20 -102 -24 -174 -25 -380 0 -181 9 -352 19 -369 2 -3 7 -30 11 -60 6
-45 37 -177 75 -316 44 -164 173 -431 295 -615 377 -565 993 -956 1655 -1050
141 -20 208 -24 375 -25 208 0 277 6 445 41 41 9 89 18 105 21 75 11 373 120
500 183 489 241 880 636 1114 1125 63 131 63 131 94 220 44 123 88 281 100
360 3 17 8 46 11 65 14 81 16 98 23 165 10 89 10 335 1 445 -84 1006 -815
1876 -1791 2129 -62 16 -128 32 -147 35 -19 3 -44 7 -55 10 -11 2 -39 7 -63
11 -23 4 -54 9 -70 11 -66 12 -482 10 -567 -1z"/>
</g>
</svg>
